<?xml version="1.0" encoding="utf-8"?>
<!-- Generator: Adobe Illustrator 18.1.1, SVG Export Plug-In . SVG Version: 6.00 Build 0)  -->
<svg version="1.1" id="Layer_1" xmlns="http://www.w3.org/2000/svg" xmlns:xlink="http://www.w3.org/1999/xlink" x="0px" y="0px"
	 viewBox="157 -39 813 578" enable-background="new 157 -39 813 578" xml:space="preserve">
<g>
	<g>
		<g transform="translate(264.784406, 205.264077)">
			<g>
				<path d="M330.4,39.9v27.3l-31.3,30.7l-30.6-30.7V-77.3l29.8-29.8h87.6l29.8,29.8v87.4l-29.8,29.8H330.4z"/>
			</g>
		</g>
	</g>
	<g>
		<g transform="translate(379.10769, 205.264077)">
			<g>
				<path d="M390.2-132.5l30-30l1.9-1.7l1.3,1.5l29.4,29.2V10.1l-29.6,29.8h-86.9l-29.6-29.8v-87.4l29.6-29.8h55.2v-24.4
					L390.2-132.5z"/>
			</g>
		</g>
	</g>
	<g>
		<g transform="translate(492.486141, 205.264077)">
			<g>
				<path d="M407.4-104.3l28.4,28.6l-29.8,29.4v57.9L378,39.9h-5.7l-28.1-28.1V-134l31.5-30.2h29l31.1,31.3L407.4-104.3z"/>
			</g>
		</g>
	</g>
	<g>
		<g transform="translate(252.105016, 365.295322)">
			<g>
				<path d="M325.6,7.8v23.9h55.2l30.7,30.9l-30.7,30.6h-86.9l-29.8-29.8v-87.4l29.8-29.8h86.9l30.7,30.9L380.8,7.8H325.6z"/>
			</g>
		</g>
	</g>
	<g>
		<g transform="translate(371.310246, 365.295322)">
			<g>
				<path d="M452-23.7l0.2,87.1L422,93.2h-87.4l-30.2-29.6V33l27.7-27.3l-28.5-28.5l31.3-30.9H422L452-23.7z"/>
			</g>
		</g>
	</g>
	<g>
		<g transform="translate(491.77523, 365.295322)">
			<g>
				<path d="M435.5,62.6l-31.1,30.6h-29l-31.5-29.6V-82.7l28.1-28.1h5.7l27.9,28.4v58.6l29.8,29.4L407.1,34L435.5,62.6z"/>
			</g>
		</g>
	</g>
</g>
<path fill="#692BBE" d="M199,280.2c0-52.4,0-104.8,0-157.2c0-2.4,0.1-4.8,0.3-7.2c0.8-8.4,6.1-13.9,14.6-14.1
	c15.1-0.4,30.1-0.3,45.2-0.3c47.2,0,94.4,0,141.6,0.1c3.2,0,6.4,0.1,9.6,0.3c6.5,0.5,12,3,16.4,8c18.6,21.1,37.1,42.2,56,63.1
	c8,8.8,11.6,18.6,11.6,30.5c-0.2,72.3,0,144.5,0,216.8c0,7.9,0.1,15.7-0.4,23.6c-0.6,8.8-6.5,14.5-15.3,14.9
	c-8.4,0.3-16.8,0.1-25.2,0.2c-70.4,0-140.8,0.1-211.2,0.1c-8.7,0-17.3,0.2-26,0c-11.3-0.3-16.8-5.3-17.1-16.6
	c-0.4-19.5-0.3-38.9-0.3-58.4c0-34.5,0-69.1,0-103.6C198.9,280.2,198.9,280.2,199,280.2z"/>
<path fill="none" enable-background="new    " d="z"/>
<path fill="#FFFFFF" d="M382.5,194.1c25.7,0,50.8,0,76.7,0c0,1.9,0,3.4,0,4.9c0,73.3,0.1,146.6,0.1,219.9c0,6.1-1.6,7.7-7.5,7.7
	c-73.4-0.1-146.9-0.2-220.3-0.3c-2.3,0-4.5,0-6.8,0c-3.1,0-4.7-1.6-4.8-4.7c-0.1-2.4,0-4.8,0-7.2c0-94,0.1-188,0.1-281.9
	c0-6.9,0.3-7.2,7.2-7.2c49.3-0.1,98.6-0.1,148-0.2c6.1,0,7.3,1.1,7.3,7.2c0,18.9,0,37.9,0.1,56.8
	C382.5,190.7,382.5,192.2,382.5,194.1z"/>
<g>
	<g>
		<path fill="#692BBE" d="M339.9,339.4c0.5,0.7,1,1.8,1.9,2.6c5.4,5.7,12.1,8.5,19.9,9c12,0.8,24.3-8.1,26.4-18.9
			c0.7-3.9-0.6-7-3.6-7.9c-3.9-1.1-5.5,1.4-6.9,4.4c-1,2.1-1.9,4.5-3.5,6.2c-4.4,4.9-11.8,6.3-18,3.5c-6.7-3-10.9-8-11.4-15.6
			c-0.1-1.2,0.8-2.9,1.8-3.6c9.1-6.9,14.4-16.7,20.6-25.7c1.9-2.7,2.2-5.7,0.6-8.7c-1.6-2.9-4.3-3.7-7.5-3.6
			c-3.9,0.1-7.7,0.3-11.6,0.3c-10,0-20-0.1-30-0.2c-6.9-0.1-11.2,5.7-7.7,11c6.2,9.4,11.5,19.5,20.8,26.6c1.2,0.9,1.9,3.1,1.8,4.6
			c-0.6,7.6-8,15-15.6,16c-8.3,1.1-14.1-2.5-17.4-11.1c-1.2-2.9-2.9-4.9-6.3-4.2c-3.5,0.7-5.1,3.5-4.2,6.6c1.1,3.9,2.4,8.1,4.9,11
			c8.3,9.9,22.9,12.2,34.2,5.7C332.7,345.3,335.8,342.4,339.9,339.4z"/>
		<path fill="#692BBE" d="M269.4,248.8c-1.6,0.2-4.7,0.4-7.7,1c-9.9,2.1-18,7.3-23.6,15.8c-2.2,3.3-1.6,6.3,1.3,8.4
			c3.1,2.2,5.2,0.9,7.4-1.7c5.5-6.6,12.4-10.8,21.2-11.5c11-0.8,20.3,2.5,27.1,11.4c3.1,4,7.7,2.7,9.3-0.9c1.3-2.8,0.4-5.2-1.4-7.4
			C294.6,254,283.9,249,269.4,248.8z"/>
		<path fill="#692BBE" d="M442.6,269.7c-1.6-2.6-2.6-4.7-4-6.5c-12.8-15.3-36.6-19-53.2-7.8c-4.1,2.8-7.5,6.7-10.7,10.5
			c-2.4,2.9-1.3,6.3,1.7,8.2c3,1.9,5,0.8,7.1-1.8c9.3-11.7,25.9-15.2,38.8-7.8c3.7,2.1,6.4,5.9,9.9,8.5c1.6,1.2,4.2,2.1,5.9,1.5
			C439.8,273.9,441,271.5,442.6,269.7z"/>
	</g>
</g>
<path fill="none" enable-background="new    " d="z"/>
<rect x="734.4" y="151.1" transform="matrix(0.7071 -0.7071 0.7071 0.7071 98.6252 586.9048)" fill="#692BBE" width="46.7" height="46.7"/>
<rect x="733.4" y="377.5" transform="matrix(0.7071 -0.7071 0.7071 0.7071 -61.7607 652.5104)" fill="#692BBE" width="46.7" height="46.7"/>
</svg>
