<?xml version="1.0" encoding="utf-8"?>
<!-- Generator: Adobe Illustrator 18.1.1, SVG Export Plug-In . SVG Version: 6.00 Build 0)  -->
<svg version="1.1" id="Layer_1" xmlns="http://www.w3.org/2000/svg" xmlns:xlink="http://www.w3.org/1999/xlink" x="0px" y="0px"
	 viewBox="-384 155 1354 384" enable-background="new -384 155 1354 384" xml:space="preserve">
<g>
	<g transform="translate(252.105016, 365.295322)">
		<g>
			<path d="M255.2,10.8v30.6h70.6l39.2,39.5l-39.2,39.2H214.7L176.5,82V-29.7l38.1-38.1h111.2l39.2,39.5l-39.2,39.2H255.2z"/>
		</g>
	</g>
</g>
<g>
	<g transform="translate(371.310246, 365.295322)">
		<g>
			<path d="M442-29.5L442.2,82l-38.7,38.1H291.8l-38.7-37.9V43.1l35.4-34.9l-36.5-36.5l40-39.5h111.5L442-29.5z"/>
		</g>
	</g>
</g>
<g>
	<g transform="translate(491.77523, 365.295322)">
		<g>
			<path d="M447.3,80.9l-39.8,39.2h-37l-40.3-37.9v-187.2l36-36h7.2l35.7,36.3v74.9l38.1,37.6l-36.3,36.5L447.3,80.9z"/>
		</g>
	</g>
</g>
<path fill="none" enable-background="new    " d="z"/>
<g>
	<path fill="#692BBE" d="M-356.4,347.7c0-49.4,0-98.9,0-148.3c0-2.3,0.1-4.5,0.3-6.8c0.7-7.9,5.8-13.1,13.7-13.3
		c14.2-0.3,28.4-0.3,42.6-0.3c44.5,0,89.1,0,133.6,0c3,0,6,0.1,9,0.3c6.1,0.5,11.4,2.9,15.5,7.6c17.6,19.9,35,39.9,52.8,59.5
		c7.5,8.3,10.9,17.6,10.9,28.8c-0.1,68.2,0,136.4,0,204.5c0,7.4,0.1,14.9-0.4,22.2c-0.5,8.3-6.1,13.7-14.4,14
		c-7.9,0.3-15.8,0.1-23.8,0.1c-66.4,0-132.8,0.1-199.3,0.1c-8.2,0-16.4,0.2-24.5,0c-10.7-0.3-15.9-5-16.1-15.7
		c-0.4-18.4-0.3-36.7-0.3-55.1c0-32.6,0-65.2,0-97.7C-356.5,347.7-356.4,347.7-356.4,347.7z"/>
	<path fill="#FFFFFF" d="M-183.2,266.4c24.2,0,47.9,0,72.4,0c0,1.8,0,3.2,0,4.6c0,69.2,0.1,138.4,0.1,207.5c0,5.7-1.5,7.2-7,7.2
		c-69.3-0.1-138.6-0.2-207.9-0.3c-2.1,0-4.3,0-6.4,0c-3,0-4.4-1.5-4.5-4.4c-0.1-2.3,0-4.5,0-6.8c0-88.7,0.1-177.3,0.1-266
		c0-6.6,0.3-6.8,6.8-6.8c46.5-0.1,93.1-0.1,139.6-0.2c5.8,0,6.9,1,6.9,6.8c0,17.9,0,35.7,0,53.6
		C-183.2,263.2-183.2,264.7-183.2,266.4z"/>
	<g>
		<g>
			<path fill="#692BBE" d="M-223.4,403.5c0.4,0.6,1,1.7,1.8,2.5c5.1,5.3,11.5,8,18.8,8.5c11.3,0.7,23-7.6,24.9-17.9
				c0.7-3.7-0.6-6.6-3.4-7.5c-3.7-1.1-5.2,1.3-6.5,4.2c-0.9,2-1.8,4.2-3.3,5.8c-4.2,4.6-11.2,5.9-17,3.3
				c-6.3-2.8-10.3-7.6-10.8-14.7c-0.1-1.1,0.8-2.7,1.7-3.4c8.6-6.5,13.6-15.7,19.5-24.3c1.8-2.6,2.1-5.4,0.5-8.2
				c-1.5-2.7-4.1-3.5-7.1-3.4c-3.6,0.1-7.3,0.3-10.9,0.3c-9.4,0-18.9-0.1-28.3-0.2c-6.5-0.1-10.6,5.4-7.3,10.4
				c5.9,8.9,10.9,18.4,19.6,25.1c1.1,0.8,1.8,2.9,1.7,4.4c-0.6,7.1-7.6,14.2-14.7,15.1c-7.9,1-13.3-2.4-16.5-10.5
				c-1.1-2.8-2.8-4.6-5.9-4c-3.3,0.7-4.8,3.3-4,6.2c1,3.6,2.3,7.6,4.7,10.4c7.9,9.4,21.6,11.5,32.2,5.4
				C-230.2,409.1-227.2,406.4-223.4,403.5z"/>
			<path fill="#692BBE" d="M-289.9,318.1c-1.5,0.2-4.4,0.4-7.2,1c-9.4,2-16.9,6.9-22.3,14.9c-2.1,3.1-1.5,6,1.2,8
				c2.9,2.1,4.9,0.9,7-1.6c5.2-6.2,11.7-10.2,20-10.8c10.4-0.8,19.2,2.4,25.6,10.8c2.9,3.8,7.3,2.5,8.7-0.8c1.2-2.7,0.4-4.9-1.3-7
				C-266.1,323-276.3,318.3-289.9,318.1z"/>
			<path fill="#692BBE" d="M-126.4,337.7c-1.5-2.4-2.4-4.5-3.8-6.2c-12-14.4-34.6-17.9-50.2-7.4c-3.9,2.6-7.1,6.3-10.1,9.9
				c-2.3,2.7-1.3,5.9,1.6,7.8c2.8,1.8,4.7,0.7,6.7-1.7c8.7-11.1,24.4-14.3,36.6-7.3c3.5,2,6.1,5.6,9.4,8c1.5,1.1,4,1.9,5.5,1.4
				C-129.1,341.8-128,339.5-126.4,337.7z"/>
		</g>
	</g>
</g>
<path fill="none" enable-background="new    " d="z"/>
<g>
	<g transform="translate(264.784406, 205.264077)">
		<g>
			<path d="M-244.2,235.8v34.9l-40,39.2l-39.2-39.2V85.9l38.1-38.1h112l38.1,38.1v111.7l-38.1,38.1H-244.2z"/>
		</g>
	</g>
</g>
<g>
	<g transform="translate(379.10769, 205.264077)">
		<g>
			<path d="M-133.5,15.3l38.4-38.4l2.4-2.2l1.6,1.9L-53.5,14v183.7l-37.9,38.1h-111.2l-37.9-38.1V85.9l37.9-38.1h70.7V16.6
				L-133.5,15.3z"/>
		</g>
	</g>
</g>
<g>
	<g transform="translate(492.486141, 205.264077)">
		<g>
			<path d="M-77.5,51.3l36.3,36.5l-38.1,37.6v74.1l-35.7,36.3h-7.2l-36-36V13.4l40.3-38.7h37l39.8,40L-77.5,51.3z"/>
		</g>
	</g>
</g>
<rect x="201" y="320.7" transform="matrix(0.7071 -0.7071 0.7071 0.7071 -180.2552 265.9152)" fill="#FFFFFF" width="59.7" height="59.7"/>
<rect x="15.2" y="320.7" transform="matrix(0.7071 -0.7071 0.7071 0.7071 -234.6637 134.5615)" fill="#FFFFFF" width="59.7" height="59.7"/>
<rect x="698.3" y="377" transform="matrix(0.7071 -0.7071 0.7071 0.7071 -74.406 634.0246)" fill="#FFFFFF" width="59.7" height="59.7"/>
</svg>
